<?xml version="1.0" encoding="UTF-8"?>
<!DOCTYPE svg PUBLIC "-//W3C//DTD SVG 1.1//EN" "http://www.w3.org/Graphics/SVG/1.1/DTD/svg11.dtd">
<svg xmlns="http://www.w3.org/2000/svg" version="1.1" width="512px" height="512px" style="shape-rendering:geometricPrecision; text-rendering:geometricPrecision; image-rendering:optimizeQuality; fill-rule:evenodd; clip-rule:evenodd" xmlns:xlink="http://www.w3.org/1999/xlink">
<g><path style="opacity:0.995" fill="#fed500" d="M 218.5,-0.5 C 242.833,-0.5 267.167,-0.5 291.5,-0.5C 384.22,16.3955 450.72,67.3955 491,152.5C 501.846,178.261 508.679,204.928 511.5,232.5C 511.5,247.5 511.5,262.5 511.5,277.5C 500.982,366.08 457.649,433.247 381.5,479C 348.888,496.817 314.222,507.651 277.5,511.5C 262.5,511.5 247.5,511.5 232.5,511.5C 139.088,499.898 69.9213,452.898 25,370.5C 12.1241,343.715 3.62405,315.715 -0.5,286.5C -0.5,265.5 -0.5,244.5 -0.5,223.5C 15.6301,123.082 70.6301,53.2485 164.5,14C 182.318,7.94571 200.318,3.11238 218.5,-0.5 Z"/></g>
<g><path style="opacity:1" fill="#050300" d="M 214.5,152.5 C 220.865,151.901 226.865,153.068 232.5,156C 234.617,157.731 236.117,159.898 237,162.5C 237.667,175.5 237.667,188.5 237,201.5C 234.447,206.703 230.28,209.87 224.5,211C 214.673,213.405 207.506,210.239 203,201.5C 202.333,188.167 202.333,174.833 203,161.5C 205.568,156.753 209.401,153.753 214.5,152.5 Z"/></g>
<g><path style="opacity:1" fill="#030200" d="M 281.5,152.5 C 291.036,150.693 298.536,153.693 304,161.5C 304.667,174.833 304.667,188.167 304,201.5C 301.807,207.188 297.64,210.355 291.5,211C 281.887,213.106 274.721,209.939 270,201.5C 269.333,188.167 269.333,174.833 270,161.5C 272.683,156.922 276.517,153.922 281.5,152.5 Z"/></g>
<g><path style="opacity:1" fill="#000000" d="M 272.5,365.5 C 271.501,413.33 271.168,461.33 271.5,509.5C 260.833,509.5 250.167,509.5 239.5,509.5C 239.5,461.5 239.5,413.5 239.5,365.5C 194.077,356.583 164.577,329.916 151,285.5C 145.632,266.61 145.132,247.61 149.5,228.5C 220.167,228.5 290.833,228.5 361.5,228.5C 370.654,277.549 355.654,317.382 316.5,348C 303.06,356.87 288.393,362.703 272.5,365.5 Z"/></g>
<g><path style="opacity:1" fill="#605102" d="M 272.5,365.5 C 272.5,413.833 272.5,462.167 272.5,510.5C 261.321,510.828 250.321,510.495 239.5,509.5C 250.167,509.5 260.833,509.5 271.5,509.5C 271.168,461.33 271.501,413.33 272.5,365.5 Z"/></g>
</svg>
